<?xml version="1.0" encoding="UTF-8"?>
<!DOCTYPE svg PUBLIC "-//W3C//DTD SVG 1.1//EN" "http://www.w3.org/Graphics/SVG/1.1/DTD/svg11.dtd">
<svg xmlns="http://www.w3.org/2000/svg" version="1.1" width="800px" height="800px" style="shape-rendering:geometricPrecision; text-rendering:geometricPrecision; image-rendering:optimizeQuality; fill-rule:evenodd; clip-rule:evenodd" xmlns:xlink="http://www.w3.org/1999/xlink">
<g><path style="opacity:0.988" fill="#efb80f" d="M 384.5,150.5 C 387.731,152.22 390.564,154.553 393,157.5C 402.556,168.051 411.722,178.885 420.5,190C 410.876,200.625 400.876,210.959 390.5,221C 410.34,250.816 418.174,283.65 414,319.5C 407.464,368.088 383.631,405.588 342.5,432C 309.631,451.271 274.298,457.937 236.5,452C 216.26,449.122 197.76,441.956 181,430.5C 170.637,441.197 159.971,451.53 149,461.5C 136.65,448.651 124.483,435.651 112.5,422.5C 121.833,412.833 131.167,403.167 140.5,393.5C 120.439,366.979 110.772,336.979 111.5,303.5C 114.344,238.516 145.011,192.016 203.5,164C 243.849,148.69 284.182,148.69 324.5,164C 334.752,168.705 344.252,174.538 353,181.5C 364.005,171.661 374.505,161.328 384.5,150.5 Z M 257.5,209.5 C 277.248,208.48 295.581,212.98 312.5,223C 269.279,266.555 225.779,309.722 182,352.5C 177.946,347.058 174.946,341.058 173,334.5C 160.772,285.823 175.605,247.989 217.5,221C 230.172,214.381 243.506,210.548 257.5,209.5 Z M 348.5,263.5 C 352.459,269.869 354.959,276.869 356,284.5C 362.188,333.3 343.355,368.467 299.5,390C 278.554,397.068 257.221,398.401 235.5,394C 231.01,392.726 226.677,391.059 222.5,389C 264.395,346.938 306.395,305.105 348.5,263.5 Z"/></g>
<g><path style="opacity:0.983" fill="#efb80f" d="M 448.5,261.5 C 528.5,261.5 608.5,261.5 688.5,261.5C 682.234,277.958 675.567,294.291 668.5,310.5C 671.871,312.846 675.204,315.179 678.5,317.5C 673.4,317.91 668.566,318.91 664,320.5C 617.755,430.593 570.755,540.26 523,649.5C 505.2,643.843 487.7,637.51 470.5,630.5C 516.038,526.593 561.704,422.759 607.5,319C 552.501,318.5 497.501,318.333 442.5,318.5C 444.304,299.462 446.304,280.462 448.5,261.5 Z"/></g>
</svg>
