<?xml version="1.0" standalone="no"?>
<!DOCTYPE svg PUBLIC "-//W3C//DTD SVG 20010904//EN"
 "https://www.w3.org/TR/2001/REC-SVG-20010904/DTD/svg10.dtd">
<svg version="1.0" xmlns="https://www.w3.org/2000/svg"
 width="800.000000pt" height="800.000000pt" viewBox="0 0 800.000000 800.000000"
 preserveAspectRatio="xMidYMid meet">

<g transform="translate(0.000000,800.000000) scale(0.100000,-0.100000)"
fill="#d750ff" stroke="none">
<path d="M1870 5914 c-751 -851 -1377 -1561 -1393 -1579 l-27 -34 872 -707
c480 -389 878 -711 885 -716 12 -9 -68 239 -332 1033 l-158 475 688 1390 c378
764 721 1455 761 1537 41 81 73 147 72 147 -2 0 -617 -696 -1368 -1546z"/>
<path d="M5575 6140 c296 -443 668 -998 826 -1235 l288 -430 -75 -1055 c-41
-580 -73 -1068 -72 -1084 2 -21 135 258 503 1053 275 595 501 1086 503 1091 2
6 -2012 1985 -2432 2389 -77 75 -70 63 459 -729z"/>
<path d="M2888 3192 c-267 -1467 -485 -2667 -485 -2668 4 -2 3979 1175 3984
1179 2 3 -109 450 -248 994 l-252 989 -1229 1065 c-676 585 -1242 1074 -1257
1086 l-27 21 -486 -2666z"/>
</g>
</svg>
